<svg width="16" height="16" viewBox="0 0 16 16" fill="none" xmlns="http://www.w3.org/2000/svg">
<path d="M13.9601 7.39884C13.3582 7.14209 12.6957 7 12 7C9.35182 7 7.18448 9.05874 7.01118 11.663C5.56718 12.1521 3.28781 12.6064 3.28781 12.6064L3.18434 12.5512C1.4464 11.7062 1.39817 7.9452 4.55312 6.733C5.33057 6.43407 6.08892 6.39552 6.86938 6.35584C7.47797 6.3249 8.10001 6.29328 8.75504 6.13698C10.35 5.75834 12.1967 4.55929 12.9473 3C13.3651 4.23776 13.8244 5.82183 13.9601 7.39884Z" fill="#F2FCF3"/>
<path d="M7.23993 13.5347C7.14662 13.245 7.07901 12.9438 7.03979 12.6338C6.72923 12.7437 6.40549 12.8418 6.03582 12.9538C5.59499 13.0874 5.08885 13.2408 4.46192 13.4575C4.25148 13.5302 4.08663 13.6004 4.08663 13.6004C4.52243 13.5285 4.95472 13.5039 4.95472 13.5039C5.48599 13.4799 6.08188 13.4988 6.70749 13.5187C6.88289 13.5242 7.06063 13.5299 7.23993 13.5347Z" fill="#F2FCF3"/>
<path d="M6.55758 5.37077C5.85421 5.40938 5.04269 5.47346 4.19453 5.79954C2.25514 6.54479 1.25485 8.10892 1.04333 9.64326C0.847108 11.0666 1.33173 12.7204 2.68642 13.4201C2.69602 13.4428 2.70767 13.4719 2.72425 13.5133L2.76299 13.6097C2.80421 13.7123 2.90411 13.9611 3.08639 14.1692C3.196 14.2944 3.35669 14.432 3.58005 14.5196C3.8087 14.6092 4.04011 14.6216 4.24942 14.587C4.43594 14.5563 4.62776 14.5348 4.77678 14.5209C4.85025 14.5141 4.911 14.5093 4.95257 14.5063L4.99926 14.5031L5.00728 14.5026C5.49521 14.481 6.04559 14.4983 6.67327 14.5181L6.95908 14.527C7.1971 14.5342 7.44342 14.5409 7.69499 14.5445C7.50786 14.2286 7.35452 13.8904 7.23993 13.5347C7.06063 13.5299 6.88289 13.5242 6.70749 13.5187C6.08189 13.4988 5.48598 13.4799 4.95472 13.5039C4.95472 13.5039 4.52243 13.5285 4.08663 13.6004C4.08663 13.6004 4.25148 13.5302 4.46192 13.4575C5.08884 13.2408 5.59497 13.0874 6.0358 12.9538C6.40547 12.8418 6.72923 12.7437 7.03979 12.6338C7.01353 12.4262 7 12.2147 7 12C7 11.8868 7.00376 11.7744 7.01118 11.663C5.56718 12.1521 3.28781 12.6064 3.28781 12.6064L3.18434 12.5512C1.4464 11.7062 1.39817 7.9452 4.55312 6.733C5.33057 6.43407 6.08892 6.39552 6.86938 6.35584C7.47797 6.3249 8.10001 6.29328 8.75504 6.13698C10.35 5.75834 12.1967 4.55929 12.9473 3C13.3651 4.23776 13.8244 5.82183 13.9601 7.39884C14.3305 7.5568 14.6778 7.75815 14.9959 7.99652C14.9899 7.78108 14.9776 7.56726 14.9602 7.35611C14.8186 5.64384 14.3242 3.95217 13.8949 2.68017L13.1103 0.356018L12.0463 2.56628C11.4596 3.78522 9.90936 4.83519 8.52413 5.16403L8.52301 5.1643C7.96333 5.29785 7.43676 5.32505 6.82202 5.35681L6.82091 5.35687C6.73498 5.36131 6.64731 5.36584 6.55758 5.37077Z" fill="#5FB865"/>
<path fill-rule="evenodd" clip-rule="evenodd" d="M16 12C16 9.79086 14.2091 8 12 8C9.79086 8 8 9.79086 8 12C8 14.2091 9.79086 16 12 16C14.2091 16 16 14.2091 16 12ZM10.2635 12.5C10.3098 13.3479 10.4722 14.1134 10.7131 14.7107C9.84445 14.2976 9.20577 13.4792 9.04148 12.5H10.2635ZM11.2652 12.5C11.3134 13.285 11.472 13.955 11.6787 14.4276C11.7975 14.6991 11.9146 14.8652 12 14.9529C12.0854 14.8652 12.2025 14.6991 12.3213 14.4276C12.528 13.955 12.6866 13.285 12.7348 12.5H11.2652ZM12.7348 11.5H11.2652C11.3134 10.715 11.472 10.045 11.6787 9.57239C11.7975 9.30089 11.9146 9.13483 12 9.04713C12.0854 9.13483 12.2025 9.30089 12.3213 9.57239C12.528 10.045 12.6866 10.715 12.7348 11.5ZM13.7365 12.5C13.6902 13.3479 13.5278 14.1134 13.2869 14.7107C14.1556 14.2976 14.7942 13.4792 14.9585 12.5H13.7365ZM14.9585 11.5H13.7365C13.6902 10.6521 13.5278 9.88659 13.2869 9.28925C14.1556 9.70237 14.7942 10.5208 14.9585 11.5ZM10.2635 11.5H9.04148C9.20577 10.5208 9.84445 9.70237 10.7131 9.28925C10.4722 9.88659 10.3098 10.6521 10.2635 11.5Z" fill="#6C707E"/>
<path d="M10.7132 14.7108C10.4722 14.1134 10.3098 13.3479 10.2636 12.5H9.0415C9.20579 13.4792 9.84447 14.2976 10.7132 14.7108Z" fill="#EBECF0"/>
<path d="M11.6787 14.4276C11.472 13.9551 11.3134 13.285 11.2652 12.5H12.7348C12.6866 13.285 12.528 13.9551 12.3213 14.4276C12.2025 14.6991 12.0854 14.8652 12 14.9529C11.9146 14.8652 11.7975 14.6991 11.6787 14.4276Z" fill="#EBECF0"/>
<path d="M11.6787 9.5724C11.472 10.045 11.3134 10.715 11.2652 11.5H12.7348C12.6866 10.715 12.528 10.045 12.3213 9.5724C12.2025 9.30089 12.0854 9.13483 12 9.04713C11.9146 9.13483 11.7975 9.30089 11.6787 9.5724Z" fill="#EBECF0"/>
<path d="M13.2869 14.7108C13.5279 14.1134 13.6902 13.3479 13.7365 12.5H14.9585C14.7943 13.4792 14.1556 14.2976 13.2869 14.7108Z" fill="#EBECF0"/>
<path d="M13.7365 11.5H14.9585C14.7943 10.5208 14.1556 9.70238 13.2869 9.28925C13.5279 9.88659 13.6902 10.6521 13.7365 11.5Z" fill="#EBECF0"/>
<path d="M9.0415 11.5H10.2636C10.3098 10.6521 10.4722 9.88659 10.7132 9.28925C9.84447 9.70238 9.20579 10.5208 9.0415 11.5Z" fill="#EBECF0"/>
</svg>
